<svg width="176" height="170" viewBox="0 0 176 170" fill="none" xmlns="http://www.w3.org/2000/svg">
<g opacity="0.1" clip-path="url(#clip0_7_4)">
<path d="M107.476 34.7162C104.409 62.452 101.436 90.3776 98.3697 118.113C97.7063 118.205 96.7592 118.201 96.0957 118.292C93.2989 108.808 90.4082 99.1345 87.4215 89.7444C85.6478 84.243 83.6842 78.8355 80.9611 73.8033C75.3273 63.3591 66.0459 63.2214 59.6529 73.2311C57.5532 76.6309 55.4513 80.5042 54.4863 84.2882C49.9475 102.83 45.8823 121.375 41.5334 139.823C41.243 141.147 41.0465 142.662 41.4195 143.895C41.6988 144.938 42.733 146.553 43.774 146.747C45.2885 146.943 47.6585 146.481 48.0427 145.346C49.6689 141.944 50.8215 138.54 51.8803 134.946C55.7378 120.284 59.4077 105.242 63.4551 90.4858C64.6122 86.1346 67 81.8837 69.7766 75.551C72.3098 80.677 74.1907 83.527 75.3121 86.7523C79.695 101.358 83.6981 116.151 88.0811 130.757C89.0126 134.076 89.7543 137.489 91.825 140.245C93.5183 142.715 96.5362 145.476 99.3754 145.963C103.539 146.74 106.019 143.152 107.173 139.274C108.232 135.68 109.291 132.086 109.782 128.3C112.445 105.961 115.011 83.9055 117.673 61.5663C118.069 58.0639 118.654 54.4676 119.344 48.6935C125.163 59.9909 122.93 71.7246 132.45 81.4291C133.797 76.984 135.041 74.2431 135.149 71.5917C135.057 50.8499 131.744 30.2825 126.534 10.1799C124.49 1.74125 117.489 0.00404199 111.114 6.22537C108.259 9.05344 105.592 12.2612 103.87 15.9469C98.8978 25.9632 94.2092 36.0754 89.6145 46.3775C88.8483 48.1734 89.0226 51.3944 90.0591 52.5357C92.6056 54.8205 95.266 53.0334 96.8877 50.5784C100.417 45.291 103.759 39.6239 107.004 34.2404C106.625 34.4281 107.192 34.6202 107.476 34.7162Z" fill="white"/>
</g>
<defs>
<clipPath id="clip0_7_4">
<rect width="122" height="136" fill="white" transform="matrix(0.443035 0.896504 0.896504 -0.443035 0 60.2527)"/>
</clipPath>
</defs>
</svg>
