<svg width="101" height="59" viewBox="0 0 101 59" fill="none" xmlns="http://www.w3.org/2000/svg">
<path d="M94.3278 43.9323C91.9682 41.4245 90.0001 39.5399 88.1834 37.5368C87.1473 36.3416 85.9924 34.9948 88.0413 32.9978C92.1957 36.5469 96.5165 39.6231 99.9987 43.7478C101.493 45.4649 101.247 46.8325 99.6696 48.5582C99.099 49.201 98.4095 49.6923 97.8043 50.1665C94.374 52.7073 90.9438 55.2481 87.4119 57.7216C86.2684 58.5685 84.9391 59.3654 83.7667 57.9343C82.7134 56.6547 83.2124 55.2358 84.2195 54.153C85.378 52.9516 86.6727 51.9861 87.9501 50.9363C88.8579 50.2251 89.85 49.4967 90.4852 48.3136C89.9794 48.4163 89.4735 48.519 88.9676 48.6216C83.3186 49.7679 81.0179 48.8293 77.7516 44.0458C75.1991 40.1717 73.4724 36.042 72.9585 31.4028C72.8176 30.2894 72.6766 29.1761 72.5531 28.147C71.8035 23.6434 69.7211 22.4848 65.6636 24.538C63.5928 25.5731 61.7102 27.0971 59.7756 28.3681C54.0065 32.3498 49.9525 31.8548 45.3326 26.4676C41.8677 22.4271 39.3452 17.8441 37.9338 12.6842C37.5204 11.0991 37.0895 9.42969 36.4404 7.98023C35.3305 5.57017 33.9272 5.15218 31.8933 6.79471C29.6908 8.47146 27.8278 10.5185 25.8632 12.4984C24.4691 13.8354 23.2957 15.3911 21.8 16.6609C18.7243 19.2176 15.1508 20.2063 11.3602 18.428C8.53397 17.069 5.74007 15.4399 3.09749 13.6922C1.36964 12.5495 0.212373 10.7639 0.940003 7.89313C1.83742 8.41377 2.54888 8.88431 3.34466 9.33773C6.15587 11.0512 8.96709 12.7646 11.9123 14.2752C14.7558 15.7186 17.3002 14.8509 19.3988 12.6682C21.1948 10.7226 22.7875 8.64251 24.6008 6.78121C26.2801 5.12279 27.9421 3.38003 29.894 2.19336C34.0831 -0.501415 38.479 0.802643 40.5625 5.38689C41.5189 7.47676 42.1726 9.80371 42.7247 12.0634C43.9131 16.5658 46.2127 20.4913 49.2018 23.9256C51.715 26.7536 53.235 26.8844 56.3303 24.8508C58.8874 23.1899 61.3082 21.2932 64.0363 20.0368C65.7872 19.1545 68.014 18.8783 70.0571 18.9908C73.6029 19.1497 75.8932 21.3202 76.6879 24.7605C77.069 26.6157 77.3832 28.5724 77.4271 30.496C77.6361 34.9336 79.5638 38.7589 81.8783 42.33C83.0183 44.0312 84.4412 44.9723 86.7177 44.5103C88.9941 44.0484 91.2902 44.1095 94.3278 43.9323Z" fill="white" fill-opacity="0.3"/>
</svg>
