<svg width="51" height="30" viewBox="0 0 51 30" fill="none" xmlns="http://www.w3.org/2000/svg">
<path d="M47.0631 22.2359C45.8833 20.9819 44.8992 20.0396 43.9908 19.038C43.4728 18.4404 42.8953 17.767 43.9198 16.7684C45.997 18.5431 48.1575 20.0812 49.8987 22.1436C50.646 23.0022 50.523 23.686 49.7341 24.5489C49.4488 24.8703 49.1041 25.116 48.8014 25.3531C47.0862 26.6235 45.371 27.8939 43.605 29.1308C43.0333 29.5543 42.3686 29.9527 41.7824 29.2371C41.2557 28.5973 41.5052 27.8878 42.0088 27.3464C42.588 26.7457 43.2354 26.2629 43.8742 25.738C44.3281 25.3824 44.8241 25.0182 45.1418 24.4266C44.8888 24.478 44.6359 24.5293 44.3829 24.5806C41.5583 25.1538 40.408 24.6845 38.7748 22.2927C37.4985 20.3555 36.6351 18.2906 36.3781 15.9709C36.3076 15.4142 36.2372 14.8575 36.1754 14.343C35.8006 12.0911 34.7593 11.5118 32.7306 12.5384C31.6951 13.056 30.7537 13.818 29.7864 14.4535C26.9018 16.4444 24.8747 16.1969 22.5647 13.5032C20.8322 11.4829 19.5709 9.19134 18.8652 6.61131C18.6584 5.81873 18.443 4.98398 18.1185 4.25923C17.5635 3.05416 16.8618 2.84516 15.8448 3.66645C14.7435 4.50485 13.812 5.52842 12.8297 6.51838C12.1326 7.1869 11.5459 7.96481 10.798 8.59973C9.26009 9.87811 7.47329 10.3725 5.57791 9.48331C4.16475 8.80377 2.76775 7.98918 1.44642 7.11531C0.582467 6.54393 0.00381138 5.65112 0.36764 4.21568C0.816362 4.47601 1.1721 4.71128 1.57001 4.938C2.97566 5.79476 4.38131 6.65152 5.85396 7.40684C7.27578 8.12854 8.54803 7.69468 9.59736 6.60329C10.4954 5.63044 11.2918 4.59038 12.1984 3.6597C13.0381 2.83046 13.8692 1.95905 14.8451 1.36569C16.9398 0.0182618 19.1378 0.670313 20.1796 2.96252C20.6578 4.00748 20.9846 5.171 21.2607 6.3009C21.8549 8.55216 23.0048 10.515 24.4993 12.2322C25.756 13.6462 26.516 13.7116 28.0637 12.6948C29.3423 11.8643 30.5528 10.9159 31.9168 10.2877C32.7923 9.84654 33.9058 9.70845 34.9274 9.76468C36.7003 9.84414 37.8455 10.9294 38.2429 12.6497C38.4334 13.5773 38.5905 14.5557 38.6125 15.5175C38.717 17.7364 39.6809 19.6491 40.8382 21.4347C41.4082 22.2853 42.1197 22.7559 43.2579 22.5249C44.3962 22.2939 45.5443 22.3245 47.0631 22.2359Z" fill="white" fill-opacity="0.3"/>
</svg>
