<svg width="78" height="86" viewBox="0 0 78 86" fill="none" xmlns="http://www.w3.org/2000/svg">
<g clip-path="url(#clip0_7_882)">
<path d="M4.09554 61.5434C4.79478 59.7213 5.49401 57.8992 6.33075 55.7395C6.83922 56.405 7.20576 56.8422 7.50939 57.3814C14.2082 68.4113 25.6302 73.27 38.2858 70.5103C46.4065 68.6867 52.7926 64.1743 58.4412 58.2215C64.7467 51.5471 67.913 43.4303 69.1809 34.4953C69.8265 29.8942 68.9447 25.478 67.3504 21.1858C66.9085 20.0684 66.4351 19.0021 65.5601 17.8994C65.5528 18.599 65.4314 19.3691 65.7036 19.9593C71.8386 34.6551 62.9071 54.9897 47.3514 64.0588C41.2637 67.6286 34.6623 69.051 27.6533 68.0394C19.4196 66.8361 11.5909 60.3904 9.03287 52.6173C11.9035 53.1196 14.3705 55.767 17.8181 54.3015C14.4778 52.3831 11.4761 50.603 8.49419 48.9055C7.48974 48.3567 6.40706 48.3934 6.09696 49.4696C4.96624 53.138 3.9694 56.8185 3.05522 60.4796C2.98061 60.7152 3.3786 61.1014 3.54029 61.4123C3.61126 61.5265 3.87901 61.5507 4.09554 61.5434Z" fill="white" fill-opacity="0.3"/>
</g>
<defs>
<clipPath id="clip0_7_882">
<rect width="69.6023" height="50" fill="white" transform="matrix(0.524772 -0.851243 -0.851243 -0.524772 42.562 85.4871)"/>
</clipPath>
</defs>
</svg>
