<svg width="159" height="171" viewBox="0 0 159 171" fill="none" xmlns="http://www.w3.org/2000/svg">
<g opacity="0.3" clip-path="url(#clip0_7_100)">
<path d="M8.19133 123.087C9.5898 119.443 10.9883 115.798 12.6617 111.479C13.6787 112.81 14.4118 113.684 15.019 114.763C28.4166 136.823 51.2606 146.54 76.5718 141.02C92.8133 137.373 105.586 128.349 116.883 116.443C129.494 103.094 135.826 86.8606 138.362 68.9905C139.653 59.7883 137.89 50.9559 134.701 42.3715C133.817 40.1368 132.87 38.0041 131.12 35.7987C131.106 37.1979 130.863 38.7381 131.407 39.9186C143.678 69.3101 125.814 109.979 94.703 128.118C82.5276 135.257 69.3249 138.102 55.3068 136.079C38.8395 133.672 23.182 120.781 18.066 105.235C23.8072 106.239 28.7412 111.534 35.6365 108.603C28.9558 104.766 22.9524 101.206 16.9886 97.811C14.9797 96.7134 12.8144 96.7867 12.1942 98.9392C9.93273 106.276 7.93903 113.637 6.11068 120.959C5.96147 121.43 6.75744 122.203 7.08083 122.825C7.22276 123.053 7.75826 123.101 8.19133 123.087Z" fill="white"/>
</g>
<defs>
<clipPath id="clip0_7_100">
<rect width="139.205" height="100" fill="white" transform="matrix(0.524772 -0.851243 -0.851243 -0.524772 85.1243 170.974)"/>
</clipPath>
</defs>
</svg>
