<svg width="30" height="43" viewBox="0 0 30 43" fill="none" xmlns="http://www.w3.org/2000/svg">
<g opacity="0.1" clip-path="url(#clip0_7_942)">
<path d="M26.8757 0.0223952C27.0691 0.966945 27.4206 1.90563 27.5087 2.8541C28.2115 11.8167 27.6438 20.6679 25.0094 29.2788C24.1611 32.007 22.9948 34.6941 21.6098 37.1779C20.18 39.8748 18.1003 42.1201 14.7183 41.9815C11.3363 41.8429 9.65737 39.2617 8.23797 36.565C6.53352 33.2972 5.71497 29.7322 5.10718 26.1593C4.97234 25.3712 4.83553 24.5303 4.27524 23.6523C3.49702 25.4261 2.71684 27.1471 1.88986 29.0285C0.699245 28.2268 0.980018 27.2646 1.11255 26.5723C1.91758 22.6825 2.77531 18.7907 3.74037 14.9478C4.15172 13.2405 5.46111 12.9803 6.51133 14.2631C8.8929 17.2941 10.3418 20.7828 11.0647 24.6158C11.0687 24.7214 10.9165 24.8857 10.7682 25.1556C8.60206 25.0776 9.08736 22.5215 7.46737 21.5243C8.04049 27.0019 8.86332 32.1002 11.62 36.7035C11.9577 37.2726 12.3989 37.7849 12.8908 38.2425C14.2571 39.5135 15.6349 39.6738 16.9031 38.3047C18.3234 36.7714 19.6305 35.0308 20.5648 33.1983C22.7767 28.8331 23.9738 24.1356 24.5874 19.354C25.232 13.9897 25.5059 8.58623 25.9378 3.17692C26.0078 2.22257 26.0232 1.21737 26.0913 0.210211C26.3001 0.14957 26.5615 0.086957 26.8757 0.0223952Z" fill="white"/>
</g>
<defs>
<clipPath id="clip0_7_942">
<rect width="27.5" height="41.5" fill="white" transform="translate(29.0238 41.4712) rotate(177.869)"/>
</clipPath>
</defs>
</svg>
