<svg width="126" height="118" viewBox="0 0 126 118" fill="none" xmlns="http://www.w3.org/2000/svg">
<g clip-path="url(#clip0_7_68)">
<path d="M106.65 53.9701C106.805 54.5427 106.957 54.719 106.972 54.9512C104.569 70.4829 97.3834 83.2821 84.3681 92.3465C81.0871 94.6436 77.2795 96.0433 73.2056 96.5981C64.4842 97.8629 56.3233 93.4925 52.5289 85.5856C50.528 81.4759 49.3331 77.1952 50.1474 72.569C52.0141 71.4869 53.9088 70.4728 55.5834 69.3103C58.3062 67.4007 60.1209 64.8294 60.4789 61.4234C60.8024 58.9061 59.9662 56.8635 58.4288 56.2209C56.4109 55.3775 54.5009 56.1594 53.2942 57.6868C51.613 59.806 50.1797 62.1417 48.9108 64.4896C48.101 66.0136 47.6352 67.7942 47.1136 69.4386C38.9314 71.4367 32.6746 65.4918 32.3131 55.4642C33.2931 54.745 34.3413 53.9979 35.2934 53.2107C38.7607 50.2014 40.7991 46.4255 40.5593 41.7539C40.464 39.9645 39.9718 38.1785 37.9818 37.4032C36.4723 36.8287 34.5622 37.6106 33.0981 39.4819C30.8213 42.4809 29.7936 46.002 29.1224 49.6156C28.9266 50.8883 28.7307 52.1609 28.6031 53.4056C16.1078 56.9308 3.27302 49.7039 3.75579 37.2637C2.89685 37.6948 2.1186 37.9339 1.82079 38.3738C1.48264 38.9097 1.51637 39.7704 1.63079 40.439C2.9085 46.6732 5.79259 51.7728 11.8337 54.4671C16.3374 56.5188 21.0773 57.2019 26.0563 56.9126C26.7539 56.8655 27.4514 56.8184 28.1769 56.8394C28.2451 56.8115 28.3691 56.9198 28.6852 57.1083C28.8678 57.749 29.1744 58.498 29.3446 59.3028C31.647 69.0129 36.0538 72.7737 46.3089 73.5044C46.3705 74.4331 46.4879 75.4981 46.5092 76.5228C46.8817 82.4916 48.8915 87.7901 52.8391 92.3749C59.244 99.849 68.9651 102.388 78.6298 99.1474C83.8854 97.3934 88.4346 94.4977 92.4572 90.7045C102.146 81.4914 108.209 70.4239 109.628 56.9643C109.746 56.28 109.768 55.5555 109.886 54.8712C109.927 54.7752 110.035 54.6513 110.361 54.2794C111.854 56.371 112.542 58.6336 113.297 60.8682C114.093 63.0068 114.78 65.2694 115.591 67.6402C117.281 66.7099 117.573 65.4774 117.509 64.1524C117.361 62.6231 117.349 61.0379 116.86 59.6483C115.491 55.9157 114.026 52.143 112.289 48.482C110.885 45.638 108.982 45.4633 107.124 47.7343C103.219 52.5924 99.3414 57.5185 95.4641 62.4446C94.8406 63.2563 94.4093 64.1484 93.7608 65.2883C95.7912 65.9676 96.6597 64.9761 97.4878 64.0806C100.391 60.6662 103.378 57.456 106.65 53.9701ZM36.7715 40.2836C38.0808 45.2329 36.2778 49.3894 32.132 51.325C32.8963 47.3552 33.5118 43.6054 36.7715 40.2836ZM56.7659 58.9686C57.4554 63.3766 55.5071 66.4001 51.1787 67.695C52.3025 64.2141 53.4292 61.1295 56.7659 58.9686Z" fill="white" fill-opacity="0.3"/>
</g>
<defs>
<clipPath id="clip0_7_68">
<rect width="85.7143" height="100" fill="white" transform="matrix(0.378851 0.925458 0.925458 -0.378851 0.361206 38.6533)"/>
</clipPath>
</defs>
</svg>
